<svg xmlns="http://www.w3.org/2000/svg" width="25.496" height="24" viewBox="0 0 25.496 24">
  <g id="Search_Icon" data-name="Search Icon" transform="translate(0.748)">
    <path id="Bounds" d="M24,24H0V0H24Z" fill="none"/>
    <g id="_x31_1-DSLR_Camera" transform="translate(-0.748 -33.2)">
      <path id="Path_79906" data-name="Path 79906" d="M23.638,36.85H16.889l-1.363-2.289a.739.739,0,0,0-.635-.361H10.6a.739.739,0,0,0-.635.361L8.607,36.85H6.392v-.5a.739.739,0,0,0-.739-.739H2.919a.739.739,0,0,0-.739.739v.5H1.858A1.858,1.858,0,0,0,0,38.709V52.163a1.858,1.858,0,0,0,1.858,1.858h21.78A1.858,1.858,0,0,0,25.5,52.163V38.709A1.858,1.858,0,0,0,23.638,36.85ZM12.748,50.725a5.289,5.289,0,1,1,5.289-5.289A5.289,5.289,0,0,1,12.748,50.725Zm9.73-10.044H20.163a.739.739,0,0,1,0-1.478h2.316a.739.739,0,1,1,0,1.478Z" fill="#28007e"/>
      <circle id="Ellipse_179" data-name="Ellipse 179" cx="3.695" cy="3.695" r="3.695" transform="translate(9.053 41.741)" fill="#28007e"/>
    </g>
  </g>
</svg>
