<svg xmlns="http://www.w3.org/2000/svg" width="33" height="28.908" viewBox="0 0 33 28.908">
  <g id="Group_4129" data-name="Group 4129" transform="translate(1)">
    <g id="Group_4122" data-name="Group 4122" transform="translate(0 1)">
      <g id="chat-svgrepo-com_2_" data-name="chat-svgrepo-com (2)" transform="translate(0 7.088)">
        <g id="Group_4117" data-name="Group 4117">
          <path id="Path_2910" data-name="Path 2910" d="M16.517,32H6.135A6.142,6.142,0,0,0,0,38.135V41.91a6.142,6.142,0,0,0,6.135,6.135H7.551v3.3a.472.472,0,0,0,.292.436.462.462,0,0,0,.18.036.476.476,0,0,0,.334-.138l3.637-3.638h4.524a6.142,6.142,0,0,0,6.135-6.135V38.135A6.142,6.142,0,0,0,16.517,32Z" transform="translate(0 -32)" fill="none" stroke="#403e5c" stroke-width="2"/>
        </g>
      </g>
      <rect id="Rectangle_293" data-name="Rectangle 293" width="15" height="14" rx="5" transform="translate(17)" fill="#80ca00"/>
    </g>
    <text id="_1" data-name="1" transform="translate(22 13)" fill="#fff" font-size="12" font-family="Poppins-Medium, Poppins" font-weight="500"><tspan x="0" y="0">1</tspan></text>
  </g>
</svg>
