<svg xmlns="http://www.w3.org/2000/svg" width="20.648" height="20.999" viewBox="0 0 20.648 20.999">
  <g id="write-svgrepo-com" transform="translate(-3.829)">
    <g id="Group_9860" data-name="Group 9860" transform="translate(3.829)">
      <g id="Group_9859" data-name="Group 9859" transform="translate(0)">
        <path id="Path_80184" data-name="Path 80184" d="M17.758,19.519h0a.129.129,0,0,1-.129.129H5.309a.129.129,0,0,1-.129-.129V1.48a.129.129,0,0,1,.129-.129h12.32a.129.129,0,0,1,.129.129V2.737l1.35-1.3A1.482,1.482,0,0,0,17.629,0H5.309a1.482,1.482,0,0,0-1.48,1.48V19.519A1.482,1.482,0,0,0,5.309,21h12.32a1.482,1.482,0,0,0,1.48-1.48v-6.35L17.758,14.52Z" transform="translate(-3.829)" fill="#fff"/>
        <path id="Path_80185" data-name="Path 80185" d="M55.319,331.451a.676.676,0,0,0,.676.676h2.362a2.014,2.014,0,0,1-.29-1.351H55.995A.676.676,0,0,0,55.319,331.451Z" transform="translate(-52.958 -315.609)" fill="#fff"/>
        <path id="Path_80186" data-name="Path 80186" d="M58.8,256.828h-2.8a.676.676,0,1,0,0,1.351H58.5Z" transform="translate(-52.958 -245.053)" fill="#fff"/>
        <path id="Path_80187" data-name="Path 80187" d="M61.239,182.882H55.995a.676.676,0,0,0,0,1.351h3.894Z" transform="translate(-52.958 -174.497)" fill="#fff"/>
        <path id="Path_80188" data-name="Path 80188" d="M64.63,108.936H55.995a.676.676,0,1,0,0,1.351h7.284Z" transform="translate(-52.958 -103.941)" fill="#fff"/>
        <path id="Path_80189" data-name="Path 80189" d="M157.716,42.494a2.811,2.811,0,0,0-4.01-.03l-8.367,8.367a.68.68,0,0,0-.183.335l-.837,3.862a.676.676,0,0,0,.8.8l3.862-.837a.688.688,0,0,0,.335-.183l8.367-8.367A2.811,2.811,0,0,0,157.716,42.494ZM145.863,54.289l.352-1.627,1.274,1.274Zm10.869-8.8-7.889,7.889-2.07-2.07,7.889-7.889a1.464,1.464,0,1,1,2.07,2.07Z" transform="translate(-137.865 -39.729)" fill="#fff"/>
      </g>
    </g>
  </g>
</svg>
