<svg xmlns="http://www.w3.org/2000/svg" width="22.866" height="19.2" viewBox="0 0 22.866 19.2">
  <g id="group-svgrepo-com_1_" data-name="group-svgrepo-com (1)" transform="translate(0.1 0.1)">
    <g id="Group_4100" data-name="Group 4100" transform="translate(0 0)">
      <g id="Group_4099" data-name="Group 4099">
        <path id="Path_2872" data-name="Path 2872" d="M151.549,63.016a6.277,6.277,0,0,0,1.165,3.44,3.291,3.291,0,0,0,5.9,0,6.277,6.277,0,0,0,1.165-3.44,4.114,4.114,0,0,0-8.228,0Zm4.114-3.4a3.4,3.4,0,0,1,3.4,3.4,5.619,5.619,0,0,1-1.036,3.029,2.594,2.594,0,0,1-4.728,0,5.619,5.619,0,0,1-1.036-3.029A3.4,3.4,0,0,1,155.663,59.616Z" transform="translate(-144.33 -57.929)" fill="#fff" stroke="#fff" stroke-width="0.2"/>
        <path id="Path_2873" data-name="Path 2873" d="M98.041,238.473a.357.357,0,0,0-.406.07,3.523,3.523,0,0,1-5.328,0,.357.357,0,0,0-.406-.07,7.149,7.149,0,0,0-4.08,6.458v.006a.357.357,0,0,0,.117.265,10.472,10.472,0,0,0,14.064,0,.357.357,0,0,0,.117-.265v-.006a7.149,7.149,0,0,0-4.079-6.458Zm-3.07,8.726a9.733,9.733,0,0,1-6.433-2.421,6.434,6.434,0,0,1,3.452-5.551,4.186,4.186,0,0,0,5.963,0,6.434,6.434,0,0,1,3.451,5.551A9.733,9.733,0,0,1,94.971,247.2Z" transform="translate(-83.639 -228.914)" fill="#fff" stroke="#fff" stroke-width="0.2"/>
        <path id="Path_2874" data-name="Path 2874" d="M314.347,198.055a6.243,6.243,0,0,0-2.566-2.258.357.357,0,0,0-.406.07,3.224,3.224,0,0,1-2.27,1.039,2.843,2.843,0,0,1-1.28-.312.357.357,0,1,0-.32.639,3.55,3.55,0,0,0,1.6.388,3.841,3.841,0,0,0,2.586-1.069,5.515,5.515,0,0,1,2.928,4.72,8.433,8.433,0,0,1-3.044,1.7.357.357,0,1,0,.21.683,9.15,9.15,0,0,0,3.433-1.957.357.357,0,0,0,.117-.265v-.005A6.21,6.21,0,0,0,314.347,198.055Z" transform="translate(-292.671 -188.271)" fill="#fff" stroke="#fff" stroke-width="0.2"/>
        <path id="Path_2875" data-name="Path 2875" d="M58.564,46.672a2.5,2.5,0,0,0,1.12-.274.357.357,0,1,0-.318-.64,1.8,1.8,0,0,1-.8.2,2.624,2.624,0,0,1-2-1.3,4.8,4.8,0,0,1-.884-2.585A2.883,2.883,0,0,1,60.565,40a.357.357,0,1,0,.5-.514,3.6,3.6,0,0,0-6.094,2.589,5.466,5.466,0,0,0,1.014,3A3.267,3.267,0,0,0,58.564,46.672Z" transform="translate(-52.349 -38.48)" fill="#fff" stroke="#fff" stroke-width="0.2"/>
        <path id="Path_2876" data-name="Path 2876" d="M2.907,202.639a8.351,8.351,0,0,1-2.191-1.382,5.5,5.5,0,0,1,2.92-4.706,3.83,3.83,0,0,0,2.579,1.066,3.545,3.545,0,0,0,1.611-.394.357.357,0,0,0-.322-.638,2.837,2.837,0,0,1-1.289.317,3.213,3.213,0,0,1-2.263-1.036.357.357,0,0,0-.406-.07A6.215,6.215,0,0,0,0,201.411v0a.357.357,0,0,0,.117.265,9.069,9.069,0,0,0,2.507,1.615.357.357,0,0,0,.283-.656Z" transform="translate(0 -188.27)" fill="#fff" stroke="#fff" stroke-width="0.2"/>
        <path id="Path_2877" data-name="Path 2877" d="M69.309,346.684a.357.357,0,1,0,.659,0A.359.359,0,0,0,69.309,346.684Z" transform="translate(-65.981 -331.798)" fill="#fff" stroke="#fff" stroke-width="0.2"/>
        <path id="Path_2878" data-name="Path 2878" d="M83.649,350.878c.009.021-.009-.022,0,0Z" transform="translate(-79.663 -335.991)" fill="#fff" stroke="#fff" stroke-width="0.2"/>
        <path id="Path_2879" data-name="Path 2879" d="M291.243,40a2.883,2.883,0,0,1,4.884,2.075,4.8,4.8,0,0,1-.884,2.585,2.624,2.624,0,0,1-2,1.3,1.8,1.8,0,0,1-.8-.2.357.357,0,1,0-.318.64,2.5,2.5,0,0,0,1.12.274,3.267,3.267,0,0,0,2.584-1.6,5.465,5.465,0,0,0,1.014-3,3.6,3.6,0,0,0-6.094-2.589.357.357,0,0,0,.5.514Z" transform="translate(-276.794 -38.481)" fill="#fff" stroke="#fff" stroke-width="0.2"/>
      </g>
    </g>
  </g>
</svg>
