<svg xmlns="http://www.w3.org/2000/svg" width="28" height="32.222" viewBox="0 0 28 32.222">
  <g id="Group_4130" data-name="Group 4130" transform="translate(13010 10067)">
    <path id="helmet-svgrepo-com" d="M53.658,15.062a6.067,6.067,0,0,1,2.295.447.466.466,0,0,0,.177.037h0a.415.415,0,0,0,.409-.355,4.567,4.567,0,0,0,.063-.978c0-.07,0-.142,0-.215a14,14,0,1,0-25.9,7.335A17.347,17.347,0,0,0,36.75,26.7,12.563,12.563,0,0,0,42.6,28a8.578,8.578,0,0,0,3.41-.662,8.819,8.819,0,0,0,2.5,3.482,7.132,7.132,0,0,0,4.436,1.407c.227,0,.458-.008.689-.025a2.932,2.932,0,0,0,2.87-2.648V24.6a2.508,2.508,0,0,0-2.381-2.495l-.054,0h-6.51c0-.252,0-.514,0-.789V21.16A6.1,6.1,0,0,1,53.658,15.062Zm.266,9.626h0v4.733a.734.734,0,0,1-.473.2c-.169.012-.339.018-.5.018a4.526,4.526,0,0,1-2.85-.863,8.252,8.252,0,0,1-2.292-4.087Z" transform="translate(-13038.604 -10067)" fill="#211e41"/>
    <g id="info-svgrepo-com_1_" data-name="info-svgrepo-com (1)" transform="translate(-13002.03 -10064.052)">
      <path id="Path_2907" data-name="Path 2907" d="M40.233,18.928l-.3,1.212q-1.334.527-2.129.8a5.615,5.615,0,0,1-1.846.276,3.685,3.685,0,0,1-2.511-.788,2.549,2.549,0,0,1-.9-2,7.079,7.079,0,0,1,.067-.963q.068-.493.217-1.112l1.111-3.934q.148-.565.25-1.071a4.655,4.655,0,0,0,.1-.922,1.426,1.426,0,0,0-.311-1.051,1.757,1.757,0,0,0-1.189-.3,3.115,3.115,0,0,0-.884.135c-.3.089-.561.176-.778.256l.3-1.213q1.092-.445,2.09-.761a6.25,6.25,0,0,1,1.89-.317,3.6,3.6,0,0,1,2.474.775,2.573,2.573,0,0,1,.869,2.014c0,.171-.019.472-.06.9a6.038,6.038,0,0,1-.223,1.186l-1.107,3.918a10.406,10.406,0,0,0-.243,1.079,5.556,5.556,0,0,0-.108.916,1.32,1.32,0,0,0,.349,1.064,1.968,1.968,0,0,0,1.211.283,3.5,3.5,0,0,0,.915-.141A5.119,5.119,0,0,0,40.233,18.928Zm.281-16.45a2.293,2.293,0,0,1-.774,1.745,2.636,2.636,0,0,1-1.864.722A2.665,2.665,0,0,1,36,4.223a2.288,2.288,0,0,1-.782-1.745A2.311,2.311,0,0,1,36,.727a2.766,2.766,0,0,1,3.738,0A2.315,2.315,0,0,1,40.514,2.478Z" transform="translate(-31.139 0)" fill="#fff"/>
    </g>
  </g>
</svg>
