<svg id="profile-svgrepo-com" xmlns="http://www.w3.org/2000/svg" width="20.266" height="20.266" viewBox="0 0 20.266 20.266">
  <g id="Group_4102" data-name="Group 4102" transform="translate(0)">
    <g id="Group_4101" data-name="Group 4101">
      <path id="Path_2880" data-name="Path 2880" d="M135.169,49.778a4.449,4.449,0,0,0-4.444,4.444,6.377,6.377,0,0,0,1.255,3.61,3.646,3.646,0,0,0,6.379,0,6.377,6.377,0,0,0,1.255-3.61A4.449,4.449,0,0,0,135.169,49.778Zm0,8.985a3.189,3.189,0,0,1-2.425-1.492,5.476,5.476,0,0,1-1.071-3.05,3.5,3.5,0,1,1,6.993,0C138.665,56.224,137.019,58.763,135.169,58.763Z" transform="translate(-125.036 -46.634)" fill="#fff"/>
      <path id="Path_2881" data-name="Path 2881" d="M44.921,0A10.133,10.133,0,1,0,55.054,10.133,10.144,10.144,0,0,0,44.921,0Zm0,19.352a9.165,9.165,0,0,1-4.982-1.466A4.979,4.979,0,0,1,41.7,14.263a1.326,1.326,0,0,1,1.549-.1,3.1,3.1,0,0,0,3.353,0,1.324,1.324,0,0,1,1.545.095A4.984,4.984,0,0,1,49.9,17.886,9.165,9.165,0,0,1,44.921,19.352Zm5.844-2.094a5.9,5.9,0,0,0-2.031-3.7,2.237,2.237,0,0,0-2.609-.179,2.193,2.193,0,0,1-2.406,0,2.239,2.239,0,0,0-2.614.183,5.892,5.892,0,0,0-2.027,3.69,9.219,9.219,0,1,1,11.688,0Z" transform="translate(-34.788 0)" fill="#fff"/>
    </g>
  </g>
</svg>
