<svg xmlns="http://www.w3.org/2000/svg" width="20.821" height="20.821" viewBox="0 0 20.821 20.821">
  <g id="Group_4125" data-name="Group 4125" transform="translate(0.5 -8.587)">
    <g id="Group_4121" data-name="Group 4121" transform="translate(0 2)">
      <g id="cricket-svgrepo-com_1_" data-name="cricket-svgrepo-com (1)" transform="translate(0 7.087)">
        <g id="Group_4116" data-name="Group 4116">
          <g id="Group_4115" data-name="Group 4115">
            <rect id="Rectangle_278" data-name="Rectangle 278" width="0.639" height="1.5" transform="translate(12.262 9.766) rotate(-135)" stroke="#211e41" stroke-width="1"/>
            <rect id="Rectangle_279" data-name="Rectangle 279" width="0.639" height="1.5" transform="translate(4.094 14.385) rotate(-135)" stroke="#211e41" stroke-width="1"/>
            <rect id="Rectangle_280" data-name="Rectangle 280" width="0.639" height="1.5" transform="translate(6.287 11.272) rotate(45)" stroke="#211e41" stroke-width="1"/>
            <rect id="Rectangle_281" data-name="Rectangle 281" width="0.639" height="1.5" transform="translate(9.477 8.096) rotate(45)" stroke="#211e41" stroke-width="1"/>
            <rect id="Rectangle_282" data-name="Rectangle 282" width="0.639" height="1.5" transform="translate(7.885 9.685) rotate(45)" stroke="#211e41" stroke-width="1"/>
            <rect id="Rectangle_283" data-name="Rectangle 283" width="0.639" height="1.5" transform="translate(11.061 6.498) rotate(45)" stroke="#211e41" stroke-width="1"/>
            <rect id="Rectangle_284" data-name="Rectangle 284" width="0.639" height="1.5" transform="translate(12.659 4.91) rotate(45)" stroke="#211e41" stroke-width="1"/>
            <rect id="Rectangle_285" data-name="Rectangle 285" width="0.639" height="1.5" transform="translate(14.246 3.315) rotate(45)" stroke="#211e41" stroke-width="1"/>
            <rect id="Rectangle_286" data-name="Rectangle 286" width="0.639" height="1.5" transform="translate(5.896 16.135) rotate(-135)" stroke="#211e41" stroke-width="1"/>
            <rect id="Rectangle_287" data-name="Rectangle 287" width="0.639" height="1.5" transform="translate(7.489 14.541) rotate(-135)" stroke="#211e41" stroke-width="1"/>
            <rect id="Rectangle_288" data-name="Rectangle 288" width="0.639" height="1.5" transform="translate(10.67 11.361) rotate(-135)" stroke="#211e41" stroke-width="1"/>
            <rect id="Rectangle_289" data-name="Rectangle 289" width="0.639" height="1.5" transform="translate(9.081 12.952) rotate(-135)" stroke="#211e41" stroke-width="1"/>
            <rect id="Rectangle_290" data-name="Rectangle 290" width="0.639" height="1.5" transform="translate(13.855 8.178) rotate(-135)" stroke="#211e41" stroke-width="1"/>
            <rect id="Rectangle_291" data-name="Rectangle 291" width="0.639" height="1.5" transform="translate(15.444 6.586) rotate(-135)" stroke="#211e41" stroke-width="1"/>
            <path id="Path_2909" data-name="Path 2909" d="M16.91,543.25a9.895,9.895,0,1,0,2.911,7.02A9.858,9.858,0,0,0,16.91,543.25Zm-16.27,7.02A9.283,9.283,0,0,1,9.91,541a9.17,9.17,0,0,1,4.2,1.01L1.65,554.473A9.224,9.224,0,0,1,.639,550.271Zm3.913,7.562.81-.81-.452-.452-.87.87a9.5,9.5,0,0,1-1.326-1.326l.84-.84-.452-.452-.78.78c-.124-.175-.243-.358-.354-.546l12.724-12.724c.188.111.367.23.546.354l-.46.46.452.452.524-.524a9.258,9.258,0,0,1,1.313,1.3l-.494.524.465.439.422-.448c.124.171.239.345.35.524L5.06,558.169C4.885,558.062,4.714,557.952,4.552,557.832Zm5.358,1.709A9.236,9.236,0,0,1,5.639,558.5l12.5-12.5a9.184,9.184,0,0,1,1.044,4.271A9.283,9.283,0,0,1,9.91,559.542Z" transform="translate(0 -540.36)" stroke="#211e41" stroke-width="1"/>
          </g>
        </g>
      </g>
    </g>
  </g>
</svg>
