<svg xmlns="http://www.w3.org/2000/svg" width="18.567" height="20.408" viewBox="0 0 18.567 20.408">
  <g id="Icon_feather-share-2" data-name="Icon feather-share-2" transform="translate(1 1)">
    <path id="Path_2851" data-name="Path 2851" d="M28.022,5.761A2.761,2.761,0,1,1,25.261,3a2.761,2.761,0,0,1,2.761,2.761Z" transform="translate(-11.455 -3)" fill="none" stroke="#211e41" stroke-linecap="round" stroke-linejoin="round" stroke-width="2"/>
    <path id="Path_2852" data-name="Path 2852" d="M10.022,16.261A2.761,2.761,0,1,1,7.261,13.5,2.761,2.761,0,0,1,10.022,16.261Z" transform="translate(-4.5 -7.057)" fill="none" stroke="#211e41" stroke-linecap="round" stroke-linejoin="round" stroke-width="2"/>
    <path id="Path_2853" data-name="Path 2853" d="M28.022,26.761A2.761,2.761,0,1,1,25.261,24,2.761,2.761,0,0,1,28.022,26.761Z" transform="translate(-11.455 -11.114)" fill="none" stroke="#211e41" stroke-linecap="round" stroke-linejoin="round" stroke-width="2"/>
    <path id="Path_2854" data-name="Path 2854" d="M12.885,20.265l6.286,3.663" transform="translate(-7.74 -9.671)" fill="none" stroke="#211e41" stroke-linecap="round" stroke-linejoin="round" stroke-width="2"/>
    <path id="Path_2855" data-name="Path 2855" d="M19.162,9.765l-6.277,3.663" transform="translate(-7.74 -5.614)" fill="none" stroke="#211e41" stroke-linecap="round" stroke-linejoin="round" stroke-width="2"/>
  </g>
</svg>
