<svg id="coins-svgrepo-com_1_" data-name="coins-svgrepo-com (1)" xmlns="http://www.w3.org/2000/svg" width="30.473" height="30.473" viewBox="0 0 30.473 30.473">
  <path id="Path_80180" data-name="Path 80180" d="M27.425,15.057v-.128a5.106,5.106,0,0,0,2.539-4.036V6.6c0-3.764-5.895-6.6-13.713-6.6S2.539,2.839,2.539,6.6V7.755C.883,8.866,0,10.216,0,11.681v4.291c0,1.674,1.135,3.191,3.047,4.372V23.59c0,3.859,6.023,6.883,13.713,6.883s13.713-3.023,13.713-6.883V19.3C30.473,17.682,29.413,16.222,27.425,15.057ZM29.457,19.3c0,3.247-5.933,6.095-12.7,6.095-.292,0-.582-.008-.871-.018l-.257-.01q-.377-.017-.749-.046c-.162-.013-.321-.028-.481-.044l-.211-.021C10.012,24.806,6.458,23.3,4.9,21.4c-.02-.025-.042-.05-.062-.076s-.044-.06-.067-.091a17.8,17.8,0,0,0,2.327.8c2.254,1.483,5.762,2.332,9.659,2.332,6.884,0,11.681-2.667,11.681-5.061A2.725,2.725,0,0,0,27.2,17.252c.013-.036.022-.073.035-.11.017-.053.035-.105.05-.158s.031-.123.046-.185.025-.107.035-.16.019-.125.027-.188.015-.108.02-.163c0-.016,0-.031.006-.047A3.935,3.935,0,0,1,29.457,19.3Zm-10.6,7.027.045,0c.292-.024.578-.054.863-.087l.22-.026c.282-.036.562-.074.836-.118v3.043c-.657.106-1.335.188-2.032.243V26.331Zm2.981-.422.084-.019c.273-.058.543-.119.808-.185l.1-.027c.178-.046.355-.093.529-.143v3.042q-.732.211-1.524.376V25.9Zm2.539-.7.081-.028.114-.042c.21-.076.415-.155.617-.236l.171-.07.034-.014v3.028q-.486.211-1.016.4V25.208Zm2.032-.862c.087-.045.172-.091.256-.137l.147-.08c.2-.11.386-.222.569-.338l.043-.027v2.958a9.777,9.777,0,0,1-1.016.631V24.346ZM6.095,23.764c.316.2.659.393,1.016.576v3.013a9.863,9.863,0,0,1-1.016-.631ZM3.555,9.289l.026.029q.169.211.363.415c.029.03.059.06.089.09q.172.174.361.343c.03.027.058.054.089.08l.087.075v2.829a3.33,3.33,0,0,1-1.016-2.258ZM6.2,11.431l.147.08c.085.046.169.092.256.137v3.008a9.863,9.863,0,0,1-1.016-.631V11.067l.043.027C5.813,11.209,6,11.322,6.2,11.431Zm1.624.773q.3.123.617.236l.114.042.081.028v3.038q-.53-.187-1.016-.4V12.121l.034.014C7.708,12.159,7.765,12.181,7.823,12.2Zm2.458.8c.264.067.534.127.808.185l.084.019V16.25q-.79-.165-1.524-.376V12.832c.174.05.35.1.529.143Zm2.964.536c.285.033.572.063.863.087l.045,0,.067,0V16.68c-.7-.054-1.375-.136-2.032-.243V13.394c.275.044.555.083.836.118Zm3.007.174c.319,0,.634-.008.948-.019l.068,0v3.036c-.338.013-.675.032-1.016.032s-.68-.009-1.016-.021V13.692l.068,0C15.618,13.705,15.933,13.713,16.252,13.713Zm2.143-.087c.292-.024.578-.054.863-.087l.22-.026c.282-.036.562-.074.836-.118v3.037c-.191.03-.378.066-.572.092-.1.014-.2.028-.3.041-.38.047-.767.08-1.155.11V13.635l.067,0ZM22.223,13l.1-.027c.178-.046.355-.093.529-.143v3.042l-.2.055h0c-.114.031-.229.063-.344.093q-.42.108-.854.2l-.127.027V13.207l.084-.019C21.689,13.13,21.959,13.069,22.223,13Zm1.842-.561c.21-.076.415-.155.617-.236l.171-.07.034-.014V15.15q-.486.211-1.016.4V12.512l.081-.028Zm2.24-1.01c.2-.11.386-.222.569-.338l.043-.027v2.958a9.776,9.776,0,0,1-1.016.631V11.648c.087-.045.172-.091.256-.137ZM5.112,17.213l.171.07q.3.123.617.236l.114.042.081.028v3.038q-.53-.187-1.016-.4V17.2Zm2.629.867c.264.067.534.127.808.185l.084.019v3.043l-.086-.018q-.409-.086-.8-.186c-.215-.054-.425-.112-.632-.172V17.911c.174.05.35.1.529.143Zm2.964.536c.285.033.572.063.863.087l.045,0,.067,0v3.039c-.349-.027-.7-.057-1.04-.1-.166-.019-.329-.043-.492-.066s-.333-.053-.5-.079V18.473c.275.044.555.083.836.118Zm3.007.174c.341,0,.679-.012,1.016-.025v3.051H14.7c-.326.012-.653.02-.984.02s-.678-.018-1.016-.031V18.771l.068,0C13.078,18.784,13.394,18.791,13.713,18.791ZM17.189,21.6c-.12.016-.239.034-.36.048q-.394.047-.8.082l-.267.023-.022,0V18.7c.167-.013.335-.021.5-.037s.331-.042.5-.061c.245-.029.492-.055.733-.091.1-.015.2-.036.3-.053v3.054l-.129.021C17.495,21.56,17.342,21.583,17.189,21.6Zm2-3.42c.213-.049.429-.094.636-.148.167-.044.326-.1.489-.143v3.06q-.732.211-1.524.376V18.276C18.926,18.248,19.057,18.214,19.189,18.184Zm2.142-.615.1-.035c.186-.067.377-.13.557-.2.124-.049.24-.1.361-.156v3.052q-.486.211-1.016.4V17.569Zm2.032,2.167V16.808c.35-.1.688-.217,1.016-.337V19.1A9.864,9.864,0,0,1,23.362,19.735Zm3.047-3.763a2.78,2.78,0,0,1-.25,1.133l-.046.1a4.17,4.17,0,0,1-.612.907c-.03.035-.059.07-.091.1l-.016.016V16.062c.356-.158.7-.325,1.016-.5Zm-23.362.174.043.027q.274.174.569.338l.147.08c.085.046.169.092.256.137V19.3h-.73q-.147-.1-.285-.2Zm5.079,8.672q.49.206,1.016.39v3.039q-.53-.187-1.016-.4Zm2.032.708c.492.141,1,.27,1.524.379v3.043q-.79-.165-1.524-.376Zm2.539.565c.079.013.162.022.242.035.121.018.244.036.366.052.191.026.383.05.578.072s.388.041.584.059l.262.023v3.047c-.7-.054-1.375-.136-2.032-.243Zm16.252-16.8v1.6a3.33,3.33,0,0,1-1.016,2.258V10.322l.087-.074.089-.08q.19-.169.361-.343c.029-.03.06-.06.089-.09q.194-.2.363-.415C28.931,9.308,28.941,9.3,28.949,9.289Zm-12.7-8.273c7.12,0,12.7,2.454,12.7,5.587,0,3.247-5.933,6.095-12.7,6.095S3.555,9.849,3.555,6.6C3.555,3.47,9.132,1.016,16.252,1.016ZM1.016,15.972v-1.6l.026.029q.169.211.363.415c.029.03.059.06.089.09q.172.174.361.343c.03.027.058.054.089.08l.087.075V18.23A3.33,3.33,0,0,1,1.016,15.972ZM4.063,23.59v-1.6a7.175,7.175,0,0,0,1.016,1.029v2.833A3.328,3.328,0,0,1,4.063,23.59Zm11.681,5.846V26.389l.074,0c.312.011.626.019.942.019s.634-.008.948-.019l.068,0v3.046c-.336.013-.674.021-1.016.021S16.08,29.448,15.744,29.436Zm13.713-7.45v1.6a3.33,3.33,0,0,1-1.016,2.258V23.019l.087-.074.089-.08q.19-.169.361-.343c.029-.03.06-.06.089-.09q.194-.2.363-.415C29.439,22,29.449,22,29.457,21.986Z" transform="translate(0)" fill="#fff"/>
  <path id="Path_80181" data-name="Path 80181" d="M14.385,12.785l3.785-1.366.006-.052a2.657,2.657,0,0,1-1.621-1.712,1.147,1.147,0,0,1-.54-.457.893.893,0,0,1-.084-.723l.1-.313a1.322,1.322,0,0,1,.8-.778,3.046,3.046,0,0,1,.519-.7c.091-.092.166-.16.227-.216l.024-.021c0-.007,0-.015,0-.022a2.1,2.1,0,0,1-.029-.343.573.573,0,0,1,.6-.555.6.6,0,0,1,.364.116,1.347,1.347,0,0,0,.314.146,3.961,3.961,0,0,0,1.448.171c.086,0,.174-.006.263-.006,1.251,0,2.967.153,3.716,1.427a1.33,1.33,0,0,1,.813.783l.1.313A.893.893,0,0,1,25.1,9.2a1.146,1.146,0,0,1-.54.457,2.656,2.656,0,0,1-1.621,1.712l.006.053,3.816,1.429c3.463-.968,5.6-2.682,5.6-4.278C32.362,6.324,27.993,4,20.681,4S9,6.324,9,8.571C9,10.133,11.052,11.807,14.385,12.785Z" transform="translate(-4.429 -1.968)" fill="#fff"/>
</svg>
