<svg xmlns="http://www.w3.org/2000/svg" width="53" height="53" viewBox="0 0 53 53">
  <g id="google-svgrepo-com" transform="translate(0 -0.367)">
    <path id="Path_80132" data-name="Path 80132" d="M26.5,0A26.5,26.5,0,1,1,0,26.5,26.5,26.5,0,0,1,26.5,0Z" transform="translate(0 0.367)" fill="#4179d5"/>
    <path id="Path_2901" data-name="Path 2901" d="M274.42,267.416v4.568h7.555c-.307,1.962-2.284,5.744-7.555,5.744a8.41,8.41,0,0,1,0-16.817,7.514,7.514,0,0,1,5.312,2.05l3.611-3.481A12.786,12.786,0,0,0,274.42,256a13.32,13.32,0,0,0,0,26.64c7.69,0,12.789-5.406,12.789-13.018a12.184,12.184,0,0,0-.208-2.206Z" transform="translate(-247.515 -242.508)" fill="#fff"/>
  </g>
</svg>
