<svg xmlns="http://www.w3.org/2000/svg" width="24.196" height="16.349" viewBox="0 0 24.196 16.349">
  <g id="email-svgrepo-com_1_" data-name="email-svgrepo-com (1)" transform="translate(-22.486)">
    <g id="Group_9792" data-name="Group 9792" transform="translate(22.486 0)">
      <g id="Group_9791" data-name="Group 9791" transform="translate(0 0)">
        <path id="Path_80163" data-name="Path 80163" d="M24.453,16.349H44.716a1.967,1.967,0,0,0,1.967-1.963V1.963A1.966,1.966,0,0,0,44.73,0l-.01,0H24.448l-.01,0a1.966,1.966,0,0,0-1.952,1.961V14.386A1.967,1.967,0,0,0,24.453,16.349Zm.205-1.308,6.7-7.262,2.785,2.515a.653.653,0,0,0,.876,0l2.785-2.515,6.7,7.262ZM44.925,1.35a.65.65,0,0,1,.449.612V14.05L38.777,6.9Zm-1.9-.042-8.437,7.62-8.437-7.62Zm-19.228.655a.65.65,0,0,1,.449-.612L30.391,6.9l-6.6,7.147Z" transform="translate(-22.486 0)" fill="#fff"/>
      </g>
    </g>
  </g>
</svg>
