<svg xmlns="http://www.w3.org/2000/svg" width="12.809" height="22.351" viewBox="0 0 12.809 22.351">
  <g id="phone-back-with-cable-and-photo-camera-svgrepo-com" transform="translate(-28.741 0.25)">
    <g id="Group_9793" data-name="Group 9793" transform="translate(21.124)">
      <path id="Path_80166" data-name="Path 80166" d="M350.915,74.911a.965.965,0,0,0-.964-.964h-.569a.965.965,0,0,0-.964.964v.569a.966.966,0,0,0,.964.965h.569a.966.966,0,0,0,.964-.965Zm-.274.569a.691.691,0,0,1-.69.69h-.569a.691.691,0,0,1-.69-.69v-.569a.691.691,0,0,1,.69-.69h.569a.69.69,0,0,1,.69.69Z" transform="translate(-335.451 -71.017)" fill="#fff"/>
      <path id="Path_80167" data-name="Path 80167" d="M317.164,93.878h.185a.407.407,0,0,0,.407-.406v-.186a.407.407,0,0,0-.407-.406h-.185a.406.406,0,0,0-.406.406v.186A.407.407,0,0,0,317.164,93.878Zm-.132-.592a.133.133,0,0,1,.132-.132h.185a.132.132,0,0,1,.132.132v.186a.133.133,0,0,1-.132.133h-.185a.133.133,0,0,1-.132-.133Z" transform="translate(-305.046 -89.2)" fill="#fff"/>
      <circle id="Ellipse_1630" data-name="Ellipse 1630" cx="0.103" cy="0.103" r="0.103" transform="translate(12.108 4.993)" fill="#fff"/>
      <path id="Path_80168" data-name="Path 80168" d="M31.823,0a2.831,2.831,0,0,0-2.446,2.55V3.706a1.2,1.2,0,0,1-.049.422.253.253,0,0,1-.162.051h-.121c-.112.426-.028,1.249.1,1.249h.075a.18.18,0,0,1,.114.046,1.221,1.221,0,0,1,.046.418v.192a2.731,2.731,0,0,1-.17.646,1.231,1.231,0,0,0-.037.321v.225a1.232,1.232,0,0,0,.037.321,2.73,2.73,0,0,1,.17.646V19.3a2.831,2.831,0,0,0,2.446,2.55h7.032A2.831,2.831,0,0,0,41.3,19.3V2.55A2.831,2.831,0,0,0,38.855,0H31.823Zm7.031,21.3H31.823a2.246,2.246,0,0,1-1.9-2V7.642a.271.271,0,0,0-.056-.166c-.06-.078-.147-.12-.149-.149s0-.033,0-.051V7.052c0-.018,0-.035,0-.051s.09-.071.15-.149a.273.273,0,0,0,.056-.166V5.29a.271.271,0,0,0-.056-.165c-.06-.078-.148-.12-.149-.149s0-.033,0-.052V4.673c0-.018,0-.035,0-.051s.089-.07.149-.149a.273.273,0,0,0,.056-.166V2.55a2.246,2.246,0,0,1,1.9-2h7.032a2.246,2.246,0,0,1,1.9,2V19.3A2.248,2.248,0,0,1,38.855,21.3Z" transform="translate(-21.124)" fill="#fff" stroke="#f5f5f5" stroke-width="0.5"/>
      <circle id="Ellipse_1631" data-name="Ellipse 1631" cx="0.08" cy="0.08" r="0.08" transform="translate(11.067 18.808)" fill="#fff"/>
      <circle id="Ellipse_1632" data-name="Ellipse 1632" cx="0.08" cy="0.08" r="0.08" transform="translate(11.068 19.144)" fill="#fff"/>
      <circle id="Ellipse_1633" data-name="Ellipse 1633" cx="0.08" cy="0.08" r="0.08" transform="translate(11.068 19.481)" fill="#fff"/>
      <circle id="Ellipse_1634" data-name="Ellipse 1634" cx="0.08" cy="0.08" r="0.08" transform="translate(10.801 19.144)" fill="#fff"/>
      <circle id="Ellipse_1635" data-name="Ellipse 1635" cx="0.08" cy="0.08" r="0.08" transform="translate(10.801 19.481)" fill="#fff"/>
      <circle id="Ellipse_1636" data-name="Ellipse 1636" cx="0.08" cy="0.08" r="0.08" transform="translate(11.068 19.817)" fill="#fff"/>
      <circle id="Ellipse_1637" data-name="Ellipse 1637" cx="0.08" cy="0.08" r="0.08" transform="translate(11.371 18.808)" fill="#fff"/>
      <circle id="Ellipse_1638" data-name="Ellipse 1638" cx="0.08" cy="0.08" r="0.08" transform="translate(11.371 19.144)" fill="#fff"/>
      <circle id="Ellipse_1639" data-name="Ellipse 1639" cx="0.08" cy="0.08" r="0.08" transform="translate(11.371 19.481)" fill="#fff"/>
      <circle id="Ellipse_1640" data-name="Ellipse 1640" cx="0.08" cy="0.08" r="0.08" transform="translate(11.371 19.817)" fill="#fff"/>
      <circle id="Ellipse_1641" data-name="Ellipse 1641" cx="0.08" cy="0.08" r="0.08" transform="translate(11.675 18.808)" fill="#fff"/>
      <circle id="Ellipse_1642" data-name="Ellipse 1642" cx="0.08" cy="0.08" r="0.08" transform="translate(11.675 19.144)" fill="#fff"/>
      <circle id="Ellipse_1643" data-name="Ellipse 1643" cx="0.08" cy="0.08" r="0.08" transform="translate(11.675 19.481)" fill="#fff"/>
      <circle id="Ellipse_1644" data-name="Ellipse 1644" cx="0.08" cy="0.08" r="0.08" transform="translate(11.675 19.817)" fill="#fff"/>
      <circle id="Ellipse_1645" data-name="Ellipse 1645" cx="0.08" cy="0.08" r="0.08" transform="translate(11.979 18.808)" fill="#fff"/>
      <circle id="Ellipse_1646" data-name="Ellipse 1646" cx="0.08" cy="0.08" r="0.08" transform="translate(11.979 19.144)" fill="#fff"/>
      <circle id="Ellipse_1647" data-name="Ellipse 1647" cx="0.08" cy="0.08" r="0.08" transform="translate(11.979 19.481)" fill="#fff"/>
      <circle id="Ellipse_1648" data-name="Ellipse 1648" cx="0.08" cy="0.08" r="0.08" transform="translate(11.979 19.817)" fill="#fff"/>
      <circle id="Ellipse_1649" data-name="Ellipse 1649" cx="0.08" cy="0.08" r="0.08" transform="translate(12.282 18.808)" fill="#fff"/>
      <circle id="Ellipse_1650" data-name="Ellipse 1650" cx="0.08" cy="0.08" r="0.08" transform="translate(12.282 19.144)" fill="#fff"/>
      <circle id="Ellipse_1651" data-name="Ellipse 1651" cx="0.08" cy="0.08" r="0.08" transform="translate(12.282 19.481)" fill="#fff"/>
      <circle id="Ellipse_1652" data-name="Ellipse 1652" cx="0.08" cy="0.08" r="0.08" transform="translate(12.282 19.817)" fill="#fff"/>
      <circle id="Ellipse_1653" data-name="Ellipse 1653" cx="0.08" cy="0.08" r="0.08" transform="translate(12.586 18.808)" fill="#fff"/>
      <circle id="Ellipse_1654" data-name="Ellipse 1654" cx="0.08" cy="0.08" r="0.08" transform="translate(12.587 19.144)" fill="#fff"/>
      <circle id="Ellipse_1655" data-name="Ellipse 1655" cx="0.08" cy="0.08" r="0.08" transform="translate(12.587 19.481)" fill="#fff"/>
      <circle id="Ellipse_1656" data-name="Ellipse 1656" cx="0.08" cy="0.08" r="0.08" transform="translate(12.587 19.817)" fill="#fff"/>
      <circle id="Ellipse_1657" data-name="Ellipse 1657" cx="0.08" cy="0.08" r="0.08" transform="translate(12.89 18.808)" fill="#fff"/>
      <circle id="Ellipse_1658" data-name="Ellipse 1658" cx="0.08" cy="0.08" r="0.08" transform="translate(12.89 19.144)" fill="#fff"/>
      <circle id="Ellipse_1659" data-name="Ellipse 1659" cx="0.08" cy="0.08" r="0.08" transform="translate(12.89 19.481)" fill="#fff"/>
      <circle id="Ellipse_1660" data-name="Ellipse 1660" cx="0.08" cy="0.08" r="0.08" transform="translate(12.89 19.817)" fill="#fff"/>
      <circle id="Ellipse_1661" data-name="Ellipse 1661" cx="0.08" cy="0.08" r="0.08" transform="translate(13.194 18.808)" fill="#fff"/>
      <circle id="Ellipse_1662" data-name="Ellipse 1662" cx="0.08" cy="0.08" r="0.08" transform="translate(13.194 19.144)" fill="#fff"/>
      <circle id="Ellipse_1663" data-name="Ellipse 1663" cx="0.08" cy="0.08" r="0.08" transform="translate(13.194 19.481)" fill="#fff"/>
      <circle id="Ellipse_1664" data-name="Ellipse 1664" cx="0.08" cy="0.08" r="0.08" transform="translate(13.194 19.817)" fill="#fff"/>
      <circle id="Ellipse_1665" data-name="Ellipse 1665" cx="0.08" cy="0.08" r="0.08" transform="translate(13.497 18.808)" fill="#fff"/>
      <circle id="Ellipse_1666" data-name="Ellipse 1666" cx="0.08" cy="0.08" r="0.08" transform="translate(13.497 19.144)" fill="#fff"/>
      <circle id="Ellipse_1667" data-name="Ellipse 1667" cx="0.08" cy="0.08" r="0.08" transform="translate(13.497 19.481)" fill="#fff"/>
      <circle id="Ellipse_1668" data-name="Ellipse 1668" cx="0.08" cy="0.08" r="0.08" transform="translate(13.497 19.817)" fill="#fff"/>
      <circle id="Ellipse_1669" data-name="Ellipse 1669" cx="0.08" cy="0.08" r="0.08" transform="translate(13.801 18.808)" fill="#fff"/>
      <circle id="Ellipse_1670" data-name="Ellipse 1670" cx="0.08" cy="0.08" r="0.08" transform="translate(13.802 19.144)" fill="#fff"/>
      <circle id="Ellipse_1671" data-name="Ellipse 1671" cx="0.08" cy="0.08" r="0.08" transform="translate(13.802 19.481)" fill="#fff"/>
      <circle id="Ellipse_1672" data-name="Ellipse 1672" cx="0.08" cy="0.08" r="0.08" transform="translate(13.802 19.817)" fill="#fff"/>
      <circle id="Ellipse_1673" data-name="Ellipse 1673" cx="0.08" cy="0.08" r="0.08" transform="translate(14.105 18.808)" fill="#fff"/>
      <circle id="Ellipse_1674" data-name="Ellipse 1674" cx="0.08" cy="0.08" r="0.08" transform="translate(14.105 19.144)" fill="#fff"/>
      <circle id="Ellipse_1675" data-name="Ellipse 1675" cx="0.08" cy="0.08" r="0.08" transform="translate(14.105 19.481)" fill="#fff"/>
      <circle id="Ellipse_1676" data-name="Ellipse 1676" cx="0.08" cy="0.08" r="0.08" transform="translate(14.105 19.817)" fill="#fff"/>
      <circle id="Ellipse_1677" data-name="Ellipse 1677" cx="0.08" cy="0.08" r="0.08" transform="translate(14.409 18.808)" fill="#fff"/>
      <circle id="Ellipse_1678" data-name="Ellipse 1678" cx="0.08" cy="0.08" r="0.08" transform="translate(14.409 19.144)" fill="#fff"/>
      <circle id="Ellipse_1679" data-name="Ellipse 1679" cx="0.08" cy="0.08" r="0.08" transform="translate(14.409 19.481)" fill="#fff"/>
      <circle id="Ellipse_1680" data-name="Ellipse 1680" cx="0.08" cy="0.08" r="0.08" transform="translate(14.409 19.817)" fill="#fff"/>
      <circle id="Ellipse_1681" data-name="Ellipse 1681" cx="0.08" cy="0.08" r="0.08" transform="translate(14.712 18.808)" fill="#fff"/>
      <circle id="Ellipse_1682" data-name="Ellipse 1682" cx="0.08" cy="0.08" r="0.08" transform="translate(14.713 19.144)" fill="#fff"/>
      <circle id="Ellipse_1683" data-name="Ellipse 1683" cx="0.08" cy="0.08" r="0.08" transform="translate(14.713 19.481)" fill="#fff"/>
      <circle id="Ellipse_1684" data-name="Ellipse 1684" cx="0.08" cy="0.08" r="0.08" transform="translate(14.713 19.817)" fill="#fff"/>
      <circle id="Ellipse_1685" data-name="Ellipse 1685" cx="0.08" cy="0.08" r="0.08" transform="translate(15.016 18.808)" fill="#fff"/>
      <circle id="Ellipse_1686" data-name="Ellipse 1686" cx="0.08" cy="0.08" r="0.08" transform="translate(15.017 19.144)" fill="#fff"/>
      <circle id="Ellipse_1687" data-name="Ellipse 1687" cx="0.08" cy="0.08" r="0.08" transform="translate(15.017 19.481)" fill="#fff"/>
      <circle id="Ellipse_1688" data-name="Ellipse 1688" cx="0.08" cy="0.08" r="0.08" transform="translate(15.017 19.817)" fill="#fff"/>
      <circle id="Ellipse_1689" data-name="Ellipse 1689" cx="0.08" cy="0.08" r="0.08" transform="translate(15.32 18.808)" fill="#fff"/>
      <circle id="Ellipse_1690" data-name="Ellipse 1690" cx="0.08" cy="0.08" r="0.08" transform="translate(15.32 19.144)" fill="#fff"/>
      <circle id="Ellipse_1691" data-name="Ellipse 1691" cx="0.08" cy="0.08" r="0.08" transform="translate(15.32 19.481)" fill="#fff"/>
      <circle id="Ellipse_1692" data-name="Ellipse 1692" cx="0.08" cy="0.08" r="0.08" transform="translate(15.32 19.817)" fill="#fff"/>
      <circle id="Ellipse_1693" data-name="Ellipse 1693" cx="0.08" cy="0.08" r="0.08" transform="translate(15.624 18.808)" fill="#fff"/>
      <circle id="Ellipse_1694" data-name="Ellipse 1694" cx="0.08" cy="0.08" r="0.08" transform="translate(15.624 19.144)" fill="#fff"/>
      <circle id="Ellipse_1695" data-name="Ellipse 1695" cx="0.08" cy="0.08" r="0.08" transform="translate(15.624 19.481)" fill="#fff"/>
      <circle id="Ellipse_1696" data-name="Ellipse 1696" cx="0.08" cy="0.08" r="0.08" transform="translate(15.624 19.817)" fill="#fff"/>
      <circle id="Ellipse_1697" data-name="Ellipse 1697" cx="0.08" cy="0.08" r="0.08" transform="translate(15.927 18.808)" fill="#fff"/>
      <circle id="Ellipse_1698" data-name="Ellipse 1698" cx="0.08" cy="0.08" r="0.08" transform="translate(15.927 19.144)" fill="#fff"/>
      <circle id="Ellipse_1699" data-name="Ellipse 1699" cx="0.08" cy="0.08" r="0.08" transform="translate(15.927 19.481)" fill="#fff"/>
      <circle id="Ellipse_1700" data-name="Ellipse 1700" cx="0.08" cy="0.08" r="0.08" transform="translate(16.231 18.808)" fill="#fff"/>
      <circle id="Ellipse_1701" data-name="Ellipse 1701" cx="0.08" cy="0.08" r="0.08" transform="translate(16.232 19.144)" fill="#fff"/>
      <circle id="Ellipse_1702" data-name="Ellipse 1702" cx="0.08" cy="0.08" r="0.08" transform="translate(16.232 19.481)" fill="#fff"/>
      <circle id="Ellipse_1703" data-name="Ellipse 1703" cx="0.08" cy="0.08" r="0.08" transform="translate(16.535 18.808)" fill="#fff"/>
      <circle id="Ellipse_1704" data-name="Ellipse 1704" cx="0.08" cy="0.08" r="0.08" transform="translate(16.535 19.144)" fill="#fff"/>
      <circle id="Ellipse_1705" data-name="Ellipse 1705" cx="0.08" cy="0.08" r="0.08" transform="translate(16.535 19.481)" fill="#fff"/>
      <circle id="Ellipse_1706" data-name="Ellipse 1706" cx="0.08" cy="0.08" r="0.08" transform="translate(16.839 18.808)" fill="#fff"/>
      <circle id="Ellipse_1707" data-name="Ellipse 1707" cx="0.08" cy="0.08" r="0.08" transform="translate(16.839 19.144)" fill="#fff"/>
      <circle id="Ellipse_1708" data-name="Ellipse 1708" cx="0.08" cy="0.08" r="0.08" transform="translate(16.839 19.481)" fill="#fff"/>
      <circle id="Ellipse_1709" data-name="Ellipse 1709" cx="0.08" cy="0.08" r="0.08" transform="translate(17.142 18.808)" fill="#fff"/>
      <circle id="Ellipse_1710" data-name="Ellipse 1710" cx="0.08" cy="0.08" r="0.08" transform="translate(17.143 19.144)" fill="#fff"/>
      <circle id="Ellipse_1711" data-name="Ellipse 1711" cx="0.08" cy="0.08" r="0.08" transform="translate(17.143 19.481)" fill="#fff"/>
      <circle id="Ellipse_1712" data-name="Ellipse 1712" cx="0.08" cy="0.08" r="0.08" transform="translate(17.447 19.144)" fill="#fff"/>
      <circle id="Ellipse_1713" data-name="Ellipse 1713" cx="0.08" cy="0.08" r="0.08" transform="translate(17.447 19.481)" fill="#fff"/>
      <path id="Path_80169" data-name="Path 80169" d="M423.641,500.2h-1.2a.082.082,0,1,0,0,.159h1.2a.082.082,0,1,0,0-.159Z" transform="translate(-406.442 -480.378)" fill="#fff"/>
    </g>
  </g>
</svg>
