<svg xmlns="http://www.w3.org/2000/svg" width="21.851" height="21.851" viewBox="0 0 21.851 21.851">
  <path id="user-svgrepo-com_12_" data-name="user-svgrepo-com (12)" d="M21.851,10.925a10.925,10.925,0,1,0-18.3,8.048l-.01.009.354.3c.023.019.048.035.071.054.188.156.383.3.582.448.064.046.129.093.194.138q.318.219.652.416l.146.084c.244.139.492.269.747.389l.056.025a10.827,10.827,0,0,0,2.642.836l.073.013c.288.05.578.089.873.116l.108.008c.293.024.59.04.89.04s.591-.015.883-.039l.111-.008q.438-.04.865-.114l.074-.014a10.827,10.827,0,0,0,2.605-.816l.091-.041q.368-.173.719-.372l.174-.1c.214-.126.424-.257.628-.4.073-.05.145-.1.218-.155.174-.126.346-.255.512-.391.037-.03.077-.056.113-.086l.364-.3L18.273,19A10.9,10.9,0,0,0,21.851,10.925Zm-21.056,0A10.131,10.131,0,1,1,17.644,18.5a2.978,2.978,0,0,0-.355-.213L13.925,16.6a.881.881,0,0,1-.489-.792V14.637c.078-.1.16-.205.245-.325a8.1,8.1,0,0,0,1.039-2.035,1.442,1.442,0,0,0,.828-1.307V9.562a1.445,1.445,0,0,0-.352-.941V6.767a3.2,3.2,0,0,0-.748-2.33,4.472,4.472,0,0,0-3.523-1.259A4.473,4.473,0,0,0,7.4,4.437a3.2,3.2,0,0,0-.748,2.33V8.621a1.448,1.448,0,0,0-.352.941V10.97a1.445,1.445,0,0,0,.532,1.121,7.465,7.465,0,0,0,1.229,2.538v1.15a.886.886,0,0,1-.462.778L4.46,18.271a2.871,2.871,0,0,0-.3.189A10.107,10.107,0,0,1,.795,10.925Zm16.074,8.2q-.209.151-.424.292c-.066.043-.132.086-.2.128-.188.116-.378.226-.573.33l-.13.066a10.124,10.124,0,0,1-1.386.586l-.05.017q-.374.124-.756.219h0c-.257.064-.518.116-.78.16l-.021,0c-.247.04-.5.069-.745.091l-.133.01c-.247.019-.495.031-.744.031s-.5-.012-.753-.031l-.13-.01c-.252-.022-.5-.052-.751-.093l-.033-.006a10.093,10.093,0,0,1-1.545-.386l-.047-.016q-.375-.128-.74-.283l-.005,0c-.23-.1-.455-.209-.677-.324l-.087-.045c-.2-.108-.4-.226-.6-.348L5.387,19.4c-.18-.118-.358-.241-.532-.371L4.8,18.99l.038-.021,3.141-1.714a1.68,1.68,0,0,0,.876-1.476V14.348l-.091-.11a6.633,6.633,0,0,1-1.192-2.47l-.036-.157L7.4,11.523A.658.658,0,0,1,7.1,10.97V9.562a.649.649,0,0,1,.221-.486l.131-.118V6.744l0-.052A2.393,2.393,0,0,1,8,4.96a3.744,3.744,0,0,1,2.925-.987,3.753,3.753,0,0,1,2.918.98,2.433,2.433,0,0,1,.561,1.741l0,2.265.131.118a.65.65,0,0,1,.221.486v1.408a.664.664,0,0,1-.469.626l-.2.061-.064.2a7.35,7.35,0,0,1-.992,2c-.1.147-.205.277-.292.377l-.1.112v1.47a1.67,1.67,0,0,0,.929,1.5L16.934,19l.064.033C16.955,19.062,16.911,19.091,16.869,19.122Z" fill="#fff"/>
</svg>
