<svg xmlns="http://www.w3.org/2000/svg" width="25.222" height="19.166" viewBox="0 0 25.222 19.166">
  <g id="Group_9800" data-name="Group 9800" transform="translate(-1132 -613.58)">
    <g id="eye-svgrepo-com_1_" data-name="eye-svgrepo-com (1)" transform="translate(1132 499.81)">
      <g id="Group_9799" data-name="Group 9799" transform="translate(0 115.853)">
        <path id="Path_80171" data-name="Path 80171" d="M25.124,124.078a.815.815,0,0,0,0-.777A14.235,14.235,0,0,0,.1,123.3a.815.815,0,0,0,0,.777,14.235,14.235,0,0,0,25.025,0ZM12.612,129.7a6.011,6.011,0,1,1,6.011-6.011A6.011,6.011,0,0,1,12.612,129.7Z" transform="translate(0 -115.853)" fill="#636363"/>
        <path id="Path_80172" data-name="Path 80172" d="M234.732,231.67a3.071,3.071,0,0,0-.734.089A1.589,1.589,0,0,1,231.758,234a3.064,3.064,0,1,0,2.975-2.33Z" transform="translate(-222.121 -226.897)" fill="#636363"/>
      </g>
    </g>
    <path id="Path_80173" data-name="Path 80173" d="M-19819.363-755.663l19.314-16.347" transform="translate(20954 1387)" fill="none" stroke="#636363" stroke-linecap="round" stroke-width="2"/>
  </g>
</svg>
