<svg xmlns="http://www.w3.org/2000/svg" width="25.222" height="15.673" viewBox="0 0 25.222 15.673">
  <g id="Group_9801" data-name="Group 9801" transform="translate(-1132 -615.663)">
    <g id="eye-svgrepo-com_1_" data-name="eye-svgrepo-com (1)" transform="translate(1132 499.81)">
      <g id="Group_9799" data-name="Group 9799" transform="translate(0 115.853)">
        <path id="Path_80171" data-name="Path 80171" d="M25.124,124.078a.815.815,0,0,0,0-.777A14.235,14.235,0,0,0,.1,123.3a.815.815,0,0,0,0,.777,14.235,14.235,0,0,0,25.025,0ZM12.612,129.7a6.011,6.011,0,1,1,6.011-6.011A6.011,6.011,0,0,1,12.612,129.7Z" transform="translate(0 -115.853)" fill="#c6c6c6"/>
        <path id="Path_80172" data-name="Path 80172" d="M234.732,231.67a3.071,3.071,0,0,0-.734.089A1.589,1.589,0,0,1,231.758,234a3.064,3.064,0,1,0,2.975-2.33Z" transform="translate(-222.121 -226.897)" fill="#c6c6c6"/>
      </g>
    </g>
  </g>
</svg>
