<svg xmlns="http://www.w3.org/2000/svg" width="18.371" height="21.433" viewBox="0 0 18.371 21.433">
  <g id="Group_9961" data-name="Group 9961" transform="translate(-17632 -3753)">
    <path id="user-svgrepo-com_15_" data-name="user-svgrepo-com (15)" d="M19.987,13.581l-3.025-1.512a.833.833,0,0,1-.463-.749V10.249c.073-.089.149-.19.228-.3a7.247,7.247,0,0,0,.935-1.836A1.256,1.256,0,0,0,18.4,6.966V5.7a1.263,1.263,0,0,0-.317-.831V3.184a2.839,2.839,0,0,0-.662-2.066A3.986,3.986,0,0,0,14.283,0a3.987,3.987,0,0,0-3.137,1.118,2.839,2.839,0,0,0-.662,2.067V4.869a1.263,1.263,0,0,0-.317.831V6.966a1.259,1.259,0,0,0,.474.984,6.646,6.646,0,0,0,1.109,2.292V11.29a.837.837,0,0,1-.436.735L8.489,13.566A2.855,2.855,0,0,0,7,16.074V17.1c0,1.5,4.764,1.9,7.283,1.9s7.283-.4,7.283-1.9v-.964A2.841,2.841,0,0,0,19.987,13.581Z" transform="translate(17625 3753)" fill="#530072"/>
    <g id="Path_80249" data-name="Path 80249" transform="translate(17638.889 3762.951)" fill="#fff">
      <path d="M 5.740966796875 10.98193645477295 C 2.851086854934692 10.98193645477295 0.4999968111515045 8.630846977233887 0.4999968111515045 5.740966796875 C 0.4999968111515045 2.851086854934692 2.851086854934692 0.4999968111515045 5.740966796875 0.4999968111515045 C 8.630846977233887 0.4999968111515045 10.98193645477295 2.851086854934692 10.98193645477295 5.740966796875 C 10.98193645477295 8.630846977233887 8.630846977233887 10.98193645477295 5.740966796875 10.98193645477295 Z" stroke="none"/>
      <path d="M 5.740966796875 0.9999971389770508 C 3.126787185668945 0.9999971389770508 0.9999971389770508 3.126787185668945 0.9999971389770508 5.740966796875 C 0.9999971389770508 8.355146408081055 3.126787185668945 10.48193645477295 5.740966796875 10.48193645477295 C 8.355146408081055 10.48193645477295 10.48193645477295 8.355146408081055 10.48193645477295 5.740966796875 C 10.48193645477295 3.126787185668945 8.355146408081055 0.9999971389770508 5.740966796875 0.9999971389770508 M 5.740966796875 -2.86102294921875e-06 C 8.911617279052734 -2.86102294921875e-06 11.48193645477295 2.570317268371582 11.48193645477295 5.740966796875 C 11.48193645477295 8.911617279052734 8.911617279052734 11.48193645477295 5.740966796875 11.48193645477295 C 2.570317268371582 11.48193645477295 -2.86102294921875e-06 8.911617279052734 -2.86102294921875e-06 5.740966796875 C -2.86102294921875e-06 2.570317268371582 2.570317268371582 -2.86102294921875e-06 5.740966796875 -2.86102294921875e-06 Z" stroke="none" fill="#530072"/>
    </g>
    <g id="arrow-svgrepo-com_3_" data-name="arrow-svgrepo-com (3)" transform="translate(17644.629 3766.129) rotate(45)">
      <g id="Group_9960" data-name="Group 9960" transform="translate(0)">
        <g id="Group_9959" data-name="Group 9959" transform="translate(0)">
          <path id="Path_80248" data-name="Path 80248" d="M3.624.195,3.429,0,.276,3.154v-3H0V3.624H3.466V3.348h-3Z" fill="#530072" stroke="#530072" stroke-linecap="round" stroke-linejoin="round" stroke-width="0.5"/>
        </g>
      </g>
    </g>
  </g>
</svg>
