<svg xmlns="http://www.w3.org/2000/svg" xmlns:xlink="http://www.w3.org/1999/xlink" width="644" height="281.866" viewBox="0 0 644 281.866">
  <defs>
    <linearGradient id="linear-gradient" y1="0.5" x2="1" y2="0.5" gradientUnits="objectBoundingBox">
      <stop offset="0" stop-color="#593bfb"/>
      <stop offset="1" stop-color="#fdb658"/>
    </linearGradient>
  </defs>
  <g id="Group_9968" data-name="Group 9968" transform="translate(-641.358 -129.278)">
    <g id="Group_9967" data-name="Group 9967">
      <path id="Path_80215" data-name="Path 80215" d="M2630.347,1948.475v91.87s299.489,216.935,643.822,0c.4-45.227,0-95.472,0-95.472s3.926-25.08-25.089-25.08H2652.368S2630.347,1917.632,2630.347,1948.475Z" transform="translate(-1988.988 -1790.482)" fill="url(#linear-gradient)"/>
      <g id="Group_9962" data-name="Group 9962" transform="translate(-19918.643 -3217.866)">
        <g id="badge-svgrepo-com_3_" data-name="badge-svgrepo-com (3)" transform="translate(20810.643 3487.866)">
          <path id="Path_80254" data-name="Path 80254" d="M240.284,100.572a70.572,70.572,0,0,1-70.572,70.572l-49.8-70.572L169.712,30A70.572,70.572,0,0,1,240.284,100.572Z" transform="translate(-99.14 -30)" fill="#d48b07"/>
          <path id="Path_80255" data-name="Path 80255" d="M74,100.572a70.572,70.572,0,0,0,70.572,70.572V30A70.572,70.572,0,0,0,74,100.572Z" transform="translate(-74 -30)" fill="#ffc61b"/>
          <path id="Path_80256" data-name="Path 80256" d="M218.961,127.992,166.521,80.075c-45.239,6.333-52.441,47.917-52.441,47.917a52.441,52.441,0,1,0,104.881,0Z" transform="translate(-95.948 -57.422)" fill="#fff"/>
          <path id="Path_80257" data-name="Path 80257" d="M123.128,122.516a43.442,43.442,0,0,1,43.393-43.393v86.79a43.443,43.443,0,0,0,43.393-43.4h9.048a52.441,52.441,0,0,0-104.881-.005C114.08,122.516,123.128,122.516,123.128,122.516Z" transform="translate(-95.948 -51.946)" fill="#fee187"/>
        </g>
        <g id="Group_9961" data-name="Group 9961" transform="translate(3222.642 -226.134)">
          <path id="user-svgrepo-com_15_" data-name="user-svgrepo-com (15)" d="M44.836,39.565l-8.813-4.406a2.427,2.427,0,0,1-1.348-2.182V29.859c.211-.258.434-.553.663-.877a21.112,21.112,0,0,0,2.725-5.35A3.66,3.66,0,0,0,40.21,20.3v-3.69a3.679,3.679,0,0,0-.923-2.422V9.277a8.27,8.27,0,0,0-1.93-6.019C35.463,1.1,32.388,0,28.218,0s-7.245,1.1-9.14,3.256a8.272,8.272,0,0,0-1.93,6.02v4.907a3.679,3.679,0,0,0-.923,2.422V20.3a3.668,3.668,0,0,0,1.381,2.868,19.361,19.361,0,0,0,3.232,6.676v3.053a2.438,2.438,0,0,1-1.27,2.14l-8.23,4.489A8.319,8.319,0,0,0,7,46.828v2.987c0,4.378,13.879,5.535,21.218,5.535s21.218-1.157,21.218-5.535V47.008A8.278,8.278,0,0,0,44.836,39.565Z" transform="translate(17625 3753)" fill="#530072"/>
          <g id="Path_80249" data-name="Path 80249" transform="translate(17652.068 3781.99)" fill="#fff">
            <path d="M 16.72491645812988 32.94983673095703 C 12.39108657836914 32.94983673095703 8.316646575927734 31.26214599609375 5.252166271209717 28.19766616821289 C 2.187686443328857 25.13318634033203 0.4999964535236359 21.05874633789062 0.4999964535236359 16.72491645812988 C 0.4999964535236359 12.39108657836914 2.187686443328857 8.316646575927734 5.252166271209717 5.252166271209717 C 8.316646575927734 2.187686443328857 12.39108657836914 0.4999964535236359 16.72491645812988 0.4999964535236359 C 21.05874633789062 0.4999964535236359 25.13318634033203 2.187686443328857 28.19766616821289 5.252166271209717 C 31.26214599609375 8.316646575927734 32.94983673095703 12.39108657836914 32.94983673095703 16.72491645812988 C 32.94983673095703 21.05874633789062 31.26214599609375 25.13318634033203 28.19766616821289 28.19766616821289 C 25.13318634033203 31.26214599609375 21.05874633789062 32.94983673095703 16.72491645812988 32.94983673095703 Z" stroke="none"/>
            <path d="M 16.72491645812988 0.9999961853027344 C 12.52463722229004 0.9999961853027344 8.575765609741211 2.635677337646484 5.605716705322266 5.605716705322266 C 2.635677337646484 8.575765609741211 0.9999961853027344 12.52463722229004 0.9999961853027344 16.72491645812988 C 0.9999961853027344 20.92519760131836 2.635677337646484 24.87406539916992 5.605716705322266 27.8441162109375 C 8.575765609741211 30.81415557861328 12.52463722229004 32.44983673095703 16.72491645812988 32.44983673095703 C 20.92519760131836 32.44983673095703 24.87406539916992 30.81415557861328 27.8441162109375 27.8441162109375 C 30.81415557861328 24.87406539916992 32.44983673095703 20.92519760131836 32.44983673095703 16.72491645812988 C 32.44983673095703 12.52463722229004 30.81415557861328 8.575765609741211 27.8441162109375 5.605716705322266 C 24.87406539916992 2.635677337646484 20.92519760131836 0.9999961853027344 16.72491645812988 0.9999961853027344 M 16.72491645812988 -3.814697265625e-06 C 25.96183586120605 -3.814697265625e-06 33.44983673095703 7.487997055053711 33.44983673095703 16.72491645812988 C 33.44983673095703 25.96183586120605 25.96183586120605 33.44983673095703 16.72491645812988 33.44983673095703 C 7.487997055053711 33.44983673095703 -3.814697265625e-06 25.96183586120605 -3.814697265625e-06 16.72491645812988 C -3.814697265625e-06 7.487997055053711 7.487997055053711 -3.814697265625e-06 16.72491645812988 -3.814697265625e-06 Z" stroke="none" fill="#530072"/>
          </g>
          <g id="arrow-svgrepo-com_3_" data-name="arrow-svgrepo-com (3)" transform="translate(17668.791 3791.249) rotate(45)">
            <g id="Group_9960" data-name="Group 9960" transform="translate(0 0)">
              <g id="Group_9959" data-name="Group 9959" transform="translate(0)">
                <path id="Path_80248" data-name="Path 80248" d="M10.556.567,9.99,0,.8,9.187V.46H0v10.1H10.1v-.8H1.37Z" fill="#530072" stroke="#530072" stroke-linecap="round" stroke-linejoin="round" stroke-width="0.5"/>
              </g>
            </g>
          </g>
        </g>
      </g>
    </g>
    <path id="Path_80261" data-name="Path 80261" d="M3.15,0H7.938V-29.19H3.15ZM30.66,0h4.746V-13.65c0-6.468-4.074-9.87-9.492-9.87A8.9,8.9,0,0,0,19.026-20.5v-2.646H14.238V0h4.788V-12.936c0-4.242,2.31-6.426,5.838-6.426,3.486,0,5.8,2.184,5.8,6.426Zm8.106-23.142L47.544,0h5.712l8.82-23.142H56.994L50.442-4.284,43.89-23.142ZM65.688,0h4.788V-23.142H65.688Zm2.436-26.208a3.021,3.021,0,0,0,3.024-3.066,3.021,3.021,0,0,0-3.024-3.066,3.03,3.03,0,0,0-3.066,3.066A3.03,3.03,0,0,0,68.124-26.208ZM77.532-6.426C77.532-1.722,80.094,0,84.21,0h3.78V-3.99H85.05c-2.016,0-2.688-.714-2.688-2.436v-12.81H87.99v-3.906H82.362V-28.9h-4.83v5.754H74.8v3.906h2.73Zm24.612-13.062c3.57,0,6.384,2.268,6.468,5.838H95.8A6.3,6.3,0,0,1,102.144-19.488Zm10.836,12.6h-5.166a5.6,5.6,0,0,1-5.46,3.234A6.366,6.366,0,0,1,95.76-9.786h17.682a14.77,14.77,0,0,0,.168-2.352c0-6.8-4.662-11.382-11.256-11.382-6.846,0-11.55,4.662-11.55,11.928S95.718.378,102.354.378C108.024.378,111.678-2.856,112.98-6.888ZM138.348-5.5l-6.51-17.64H126.5L135.618-.378l-4.7,11.256h4.956l14.2-34.02H145.11Zm37.38-6.09c0-7.266-5.208-11.928-11.8-11.928s-11.8,4.662-11.8,11.928,5,11.97,11.592,11.97C170.352.378,175.728-4.326,175.728-11.592Zm-18.732,0c0-5.25,3.234-7.77,6.846-7.77,3.57,0,6.972,2.52,6.972,7.77s-3.528,7.812-7.1,7.812C160.1-3.78,157-6.342,157-11.592Zm44.436-11.55h-4.788v12.894c0,4.242-2.31,6.426-5.838,6.426-3.486,0-5.8-2.184-5.8-6.426V-23.142h-4.746V-9.534c0,6.468,4.116,9.87,9.534,9.87a8.614,8.614,0,0,0,6.846-3.108V0h4.788ZM212.52-12.18c0-4.914,2.184-6.384,5.712-6.384h1.218V-23.52a7.538,7.538,0,0,0-6.93,3.738v-3.36h-4.788V0h4.788ZM235.368,0h4.83V-19.236h4.284v-3.906H240.2V-24.78c0-2.646,1.008-3.654,3.948-3.654v-3.99c-6.048,0-8.778,2.31-8.778,7.644v1.638h-2.73v3.906h2.73Zm18.144-12.18c0-4.914,2.184-6.384,5.712-6.384h1.218V-23.52a7.538,7.538,0,0,0-6.93,3.738v-3.36h-4.788V0h4.788ZM264.852,0h4.788V-23.142h-4.788Zm2.436-26.208a3.021,3.021,0,0,0,3.024-3.066,3.021,3.021,0,0,0-3.024-3.066,3.03,3.03,0,0,0-3.066,3.066A3.03,3.03,0,0,0,267.288-26.208Zm18.4,6.72c3.57,0,6.384,2.268,6.468,5.838h-12.81A6.3,6.3,0,0,1,285.684-19.488Zm10.836,12.6h-5.166a5.6,5.6,0,0,1-5.46,3.234A6.366,6.366,0,0,1,279.3-9.786h17.682a14.769,14.769,0,0,0,.168-2.352c0-6.8-4.662-11.382-11.256-11.382-6.846,0-11.55,4.662-11.55,11.928S279.258.378,285.894.378C291.564.378,295.218-2.856,296.52-6.888ZM318.276,0h4.746V-13.65c0-6.468-4.074-9.87-9.492-9.87a8.9,8.9,0,0,0-6.888,3.024v-2.646h-4.788V0h4.788V-12.936c0-4.242,2.31-6.426,5.838-6.426,3.486,0,5.8,2.184,5.8,6.426Zm9.24-11.676c0,7.14,4.83,12.054,10.92,12.054a9.6,9.6,0,0,0,8.022-3.864V0h4.83V-31.08h-4.83v11.172a10.659,10.659,0,0,0-7.98-3.612C332.346-23.52,327.516-18.816,327.516-11.676Zm18.942.084c0,5-3.4,7.812-7.014,7.812-3.57,0-7.014-2.9-7.014-7.9s3.444-7.686,7.014-7.686C343.056-19.362,346.458-16.548,346.458-11.592ZM374.85-6.468c-.252-8.358-13.314-5.754-13.314-10.416,0-1.554,1.344-2.6,3.906-2.6,2.6,0,4.158,1.386,4.326,3.4h4.788c-.252-4.62-3.7-7.434-8.946-7.434-5.46,0-8.9,2.982-8.9,6.678,0,8.484,13.44,5.88,13.44,10.416,0,1.6-1.47,2.772-4.242,2.772-2.646,0-4.452-1.554-4.62-3.444h-4.956c.21,4.2,4.116,7.476,9.66,7.476C371.448.378,374.85-2.562,374.85-6.468Z" transform="translate(775.357 227.804)" fill="#fff"/>
  </g>
</svg>
