<svg xmlns="http://www.w3.org/2000/svg" width="167" height="153" viewBox="0 0 167 153">
  <g id="Group_9849" data-name="Group 9849" transform="translate(-784 -477)">
    <g id="Rectangle_6052" data-name="Rectangle 6052" transform="translate(784 477)" fill="#fff" stroke="#d4d4d4" stroke-width="2">
      <rect width="167" height="153" rx="10" stroke="none"/>
      <rect x="1" y="1" width="165" height="151" rx="9" fill="none"/>
    </g>
    <g id="Group_9845" data-name="Group 9845">
      <circle id="Ellipse_1571" data-name="Ellipse 1571" cx="9.934" cy="9.934" r="9.934" transform="translate(866.3 505.315)" fill="#ff9800"/>
      <path id="Path_79985" data-name="Path 79985" d="M43.82,31.444,25.541,23.3c-1.987-.993-2.98,1.987-3.974,3.974s-8.146,14.305-7.55,16.491a3.988,3.988,0,0,0,3.775,2.782,2.52,2.52,0,0,0,1.192-.2L43.423,38.8A3.817,3.817,0,0,0,46.2,35.219,4.213,4.213,0,0,0,43.82,31.444Z" transform="translate(834.4 520.165)" fill="#00796b"/>
      <path id="Path_79986" data-name="Path 79986" d="M44.362,16.417,39.991,14.43a5.314,5.314,0,0,0-6.954,2.583L9.394,67.876a4.062,4.062,0,0,0,1.987,5.364,5.8,5.8,0,0,0,1.788.4,3.753,3.753,0,0,0,3.576-2.186s19.074-26.425,20.663-29.6,9.735-18.478,9.735-18.478A5.4,5.4,0,0,0,44.362,16.417Z" transform="translate(829.487 511.151)" fill="#009688"/>
      <path id="Path_79987" data-name="Path 79987" d="M58.18,16.418a4.055,4.055,0,0,0-5.563-.6l-9.934,8.345L29.967,17.213A4.718,4.718,0,0,0,23.411,19c-1.589,2.583-.795,5.762,1.589,6.755l16.491,6.755a5.8,5.8,0,0,0,1.788.4,4.185,4.185,0,0,0,2.583-.993l11.921-9.934A4.016,4.016,0,0,0,58.18,16.418Z" transform="translate(842.889 512.143)" fill="#ff9800"/>
      <path id="Path_79988" data-name="Path 79988" d="M15.29,32.08l6.755-10.133,9.139,1.192,2.98-6.159A5.034,5.034,0,0,1,38.337,14H20.058a3.9,3.9,0,0,0-3.378,1.788L8.733,27.709a3.943,3.943,0,0,0,1.192,5.563,2.966,2.966,0,0,0,1.987.6A4.155,4.155,0,0,0,15.29,32.08Z" transform="translate(828.559 511.184)" fill="#ff9800"/>
    </g>
  </g>
</svg>
