<svg xmlns="http://www.w3.org/2000/svg" width="17.047" height="22.428" viewBox="0 0 17.047 22.428">
  <g id="upload-svgrepo-com_4_" data-name="upload-svgrepo-com (4)" transform="translate(-58.775)">
    <g id="Group_9811" data-name="Group 9811" transform="translate(58.775 0)">
      <path id="Path_80176" data-name="Path 80176" d="M75.822,177.176V168a2.848,2.848,0,0,0-2.843-2.843h-1.84a.563.563,0,0,0,0,1.126h1.84A1.725,1.725,0,0,1,74.7,168v9.183a1.725,1.725,0,0,1-1.721,1.721H61.618a1.725,1.725,0,0,1-1.721-1.721V168a1.725,1.725,0,0,1,1.721-1.721h1.84a.563.563,0,1,0,0-1.126h-1.84a2.848,2.848,0,0,0-2.843,2.843v9.183a2.848,2.848,0,0,0,2.843,2.843H72.98A2.843,2.843,0,0,0,75.822,177.176Z" transform="translate(-58.775 -157.59)" fill="#fff"/>
      <path id="Path_80177" data-name="Path 80177" d="M149.063,4.786a.558.558,0,0,0,.792,0L152.739,1.9v10.52a.563.563,0,1,0,1.126,0V1.907l2.884,2.884a.562.562,0,0,0,.8-.792L153.705.158a.575.575,0,0,0-.792,0L149.072,4A.545.545,0,0,0,149.063,4.786Z" transform="translate(-144.774 0)" fill="#fff"/>
    </g>
  </g>
</svg>
