<svg xmlns="http://www.w3.org/2000/svg" width="46" height="46" viewBox="0 0 46 46">
  <g id="Group_9978" data-name="Group 9978" transform="translate(-68 -181)">
    <circle id="Ellipse_142" data-name="Ellipse 142" cx="23" cy="23" r="23" transform="translate(68 181)" fill="#fff"/>
    <path id="pen-svgrepo-com_1_" data-name="pen-svgrepo-com (1)" d="M24.246,1.708A1.706,1.706,0,0,0,21.383.453a3.723,3.723,0,0,0-3.76.914L16.548,2.442l-.031.028L2.264,16.722a3.019,3.019,0,0,0-.658,1.133L.027,23.647a.508.508,0,0,0,.056.449.405.405,0,0,0,.333.15A.7.7,0,0,0,.6,24.219L6.391,22.64a3.02,3.02,0,0,0,1.133-.658L21.776,7.73c.01-.01.019-.021.028-.031L22.88,6.623a3.72,3.72,0,0,0,.912-3.757A1.7,1.7,0,0,0,24.246,1.708Z" transform="translate(78.706 191.707)" fill="#131639"/>
  </g>
</svg>
