<svg id="Component_2_10" data-name="Component 2 – 10" xmlns="http://www.w3.org/2000/svg" width="50" height="50" viewBox="0 0 50 50">
  <g id="Rectangle_17603" data-name="Rectangle 17603" fill="rgba(255,255,255,0.12)" stroke="#49528f" stroke-width="1">
    <rect width="50" height="50" rx="10" stroke="none"/>
    <rect x="0.5" y="0.5" width="49" height="49" rx="9.5" fill="none"/>
  </g>
  <g id="Group_9893" data-name="Group 9893" transform="translate(-1317 -18)">
    <path id="search-svgrepo-com_2_" data-name="search-svgrepo-com (2)" d="M24.088.84A6.26,6.26,0,0,0,21.8,9.392a6.255,6.255,0,0,0,7.494,2.777l2.816,4.878,2.008-1.159L31.3,11.01A6.261,6.261,0,0,0,32.64,3.131,6.258,6.258,0,0,0,24.088.84ZM30.632,4.29A3.943,3.943,0,0,1,27.223,10.2,3.957,3.957,0,0,1,23.8,8.232a3.943,3.943,0,0,1,3.409-5.914A3.957,3.957,0,0,1,30.632,4.29Z" transform="translate(1313.582 40.674) rotate(-13)" fill="#fff"/>
    <g id="Group_9892" data-name="Group 9892" transform="translate(6 -2)" opacity="0">
      <g id="Rectangle_17695" data-name="Rectangle 17695" transform="translate(1324 33)" fill="none" stroke="red" stroke-width="1">
        <rect width="24" height="24" stroke="none"/>
        <rect x="0.5" y="0.5" width="23" height="23" fill="none"/>
      </g>
    </g>
  </g>
</svg>
